<?xml version="1.0" encoding="UTF-8" standalone="no"?>
<svg
   width="40.953918"
   height="27.346291"
   version="1.1"
   id="svg7"
   sodipodi:docname="fish_blue_head.svg"
   inkscape:version="1.4.3 (0d15f75, 2025-12-25)"
   xmlns:inkscape="http://www.inkscape.org/namespaces/inkscape"
   xmlns:sodipodi="http://sodipodi.sourceforge.net/DTD/sodipodi-0.dtd"
   xmlns="http://www.w3.org/2000/svg"
   xmlns:svg="http://www.w3.org/2000/svg">
  <sodipodi:namedview
     id="namedview7"
     pagecolor="#505050"
     bordercolor="#eeeeee"
     borderopacity="1"
     inkscape:showpageshadow="0"
     inkscape:pageopacity="0"
     inkscape:pagecheckerboard="0"
     inkscape:deskcolor="#505050"
     inkscape:zoom="18.359375"
     inkscape:cx="15.251064"
     inkscape:cy="7.5982979"
     inkscape:window-width="3440"
     inkscape:window-height="1377"
     inkscape:window-x="-8"
     inkscape:window-y="204"
     inkscape:window-maximized="1"
     inkscape:current-layer="svg7"
     showguides="true" />
  <defs
     id="defs1">
    <inkscape:path-effect
       effect="spiro"
       id="path-effect42"
       is_visible="true"
       lpeversion="1" />
    <inkscape:path-effect
       effect="spiro"
       id="path-effect41"
       is_visible="true"
       lpeversion="1" />
    <inkscape:path-effect
       effect="spiro"
       id="path-effect40"
       is_visible="true"
       lpeversion="1" />
    <inkscape:path-effect
       effect="spiro"
       id="path-effect39"
       is_visible="true"
       lpeversion="1" />
    <inkscape:path-effect
       effect="spiro"
       id="path-effect38"
       is_visible="true"
       lpeversion="1" />
    <inkscape:path-effect
       effect="spiro"
       id="path-effect37"
       is_visible="true"
       lpeversion="1" />
    <inkscape:path-effect
       effect="spiro"
       id="path-effect36"
       is_visible="true"
       lpeversion="1" />
    <inkscape:path-effect
       effect="spiro"
       id="path-effect35"
       is_visible="true"
       lpeversion="1" />
    <inkscape:path-effect
       effect="spiro"
       id="path-effect34"
       is_visible="true"
       lpeversion="1" />
    <clipPath
       clipPathUnits="userSpaceOnUse"
       id="clipPath22">
      <path
         style="opacity:0.5;fill:#ffdd55"
         d="m 41.068936,43.084255 -0.925957,-0.490212 0.381276,-0.490213 -0.163404,-0.925958 h -1.252766 l 0.871489,-0.708085 -0.708085,-0.490213 0.217873,-0.871489 0.490212,-0.163404 -0.653617,-0.980426 1.252766,-0.217872 0.87149,-0.490213 L 40.96,36.602553 39.707234,36.384681 c 0,0 -0.925957,-0.272341 -1.14383,-0.326809 -0.217872,-0.05447 -0.871489,-0.544681 -0.871489,-0.544681 l 0.163404,-1.252765 h 1.089362 l 0.27234,-0.544681 c 0,0 -0.27234,-0.490213 -0.27234,-0.708085 0,-0.217873 0.326808,-1.361703 0.326808,-1.361703 l 0.05447,-0.762553 -0.381276,-0.217872 -1.252766,-0.490213 -0.925958,-0.27234 -0.326808,-0.544681 -0.217872,-0.653617 c 0,0 0.326808,-0.817021 0.599149,-0.708085 0.27234,0.108936 0.817021,0.217872 0.817021,0.217872 l 1.579574,-0.163404 0.326809,-0.544681 0.544681,-0.544681 -0.163405,-0.708085 c 0,0 0,-0.871489 0.05447,-1.307234 0.05447,-0.435745 0.490213,-0.980426 0.490213,-0.980426 l 0.217873,-0.54468 0.326808,-0.599149 0.599149,-0.272341 1.470638,-1.960851 1.361702,-0.217872 c 0,0 0.108937,0.871489 0.163405,1.089362 0.05447,0.217872 0.490212,1.361702 0.490212,1.361702 l 1.579575,0.544681 0.435745,0.27234 0.435744,0.435745 5.555745,0.599149 c 0,0 5.555745,0.925957 5.828085,1.089361 0.272341,0.163405 3.322553,6.372766 3.322553,6.372766 0,0 -2.505532,8.605958 -2.777872,8.660426 -0.27234,0.05447 -11.38383,5.991489 -12.255319,5.828085 -0.87149,-0.163404 -5.882553,-2.396596 -5.882553,-2.396596 z"
         id="path23" />
    </clipPath>
    <clipPath
       clipPathUnits="userSpaceOnUse"
       id="clipPath38">
      <rect
         style="fill:#d6d6d6"
         id="rect39"
         width="41.341278"
         height="27.56085"
         x="19.118298"
         y="19.118298" />
    </clipPath>
  </defs>
  <g
     id="g38"
     clip-path="url(#clipPath38)"
     transform="translate(-19.419915,-19.281702)">
    <path
       style="opacity:1;fill:#ffd5d5;fill-opacity:1"
       d="M 21.514894,32.13617 Z"
       id="path42"
       inkscape:path-effect="#path-effect42"
       inkscape:original-d="m 21.514894,32.13617 c 0.07262,-0.03631 0.145248,-0.07262 0,0 z"
       transform="translate(24.565106,-5.2834043)" />
    <path
       style="opacity:1;fill:#550000;fill-opacity:1"
       id="path28"
       d="m 33.602781,31.103764 c -0.06133,-0.460116 0.04454,-0.92097 0.130781,-1.371101 0.05311,-0.289064 0.149308,-0.574287 0.166765,-0.869443 0.0037,-0.06229 0.0015,-0.124782 0.0023,-0.187173 -0.03047,-0.546594 -0.142201,-1.084984 -0.217742,-1.626586 -0.07186,-0.540075 -0.221451,-1.064052 -0.362589,-1.588826 -0.100232,-0.360379 -0.234313,-0.70816 -0.442158,-1.021022 -0.140718,-0.211817 -0.218188,-0.2917 -0.382355,-0.485349 -0.292733,-0.310802 -0.62738,-0.580453 -0.99084,-0.804342 -0.212632,-0.130979 -0.306683,-0.172617 -0.526289,-0.283096 -0.521829,-0.249269 -1.084348,-0.386049 -1.6452,-0.514206 -1.019292,-0.225926 -2.040205,-0.444465 -3.06039,-0.666308 -0.95901,-0.211511 -1.914222,-0.439619 -2.869947,-0.66536 -1.12639,-0.284199 -2.109176,-0.12951 -3.377732,-0.102272 -0.118381,0.0025 -0.270607,0.06946 -0.364996,0.140321 -0.04255,0.03194 -0.07486,0.07562 -0.112285,0.113428 -0.025,0.04612 -0.05645,0.08929 -0.07501,0.138355 -0.124664,0.329428 -0.0166,0.647313 0.111584,0.95325 0.241144,0.495599 0.704508,0.808467 1.14009,1.119672 0.524162,0.386233 1.095845,0.692565 1.687955,0.959251 0.595038,0.279549 1.244761,0.379806 1.885334,0.496795 0.588314,0.120081 1.182459,0.196756 1.781413,0.23289 0.414861,0.02151 0.82901,0.053 1.244259,0.06618 0.34273,0.01649 0.687495,-0.0062 1.029518,0.02627 0.08441,0.008 0.168239,0.02128 0.252358,0.03192 0.460741,0.08166 0.912202,0.212736 1.346662,0.385867 0.120325,0.06393 0.270447,0.112546 0.35348,0.228884 0.06896,0.09662 0.09594,0.173933 0.144758,0.28359 0.100224,0.232669 0.164077,0.495078 0.332368,0.691902 0.03081,0.03603 0.0675,0.06658 0.101256,0.09987 0.03437,0.02415 0.06875,0.0483 0.103123,0.07246 0,0 2.599358,-0.284882 2.599358,-0.284882 v 0 c -0.03371,-0.01122 -0.06742,-0.02245 -0.101128,-0.03367 -0.0323,-0.01463 -0.06694,-0.02493 -0.09691,-0.04388 -0.201652,-0.12753 -0.250816,-0.40437 -0.341981,-0.605245 -0.07305,-0.183696 -0.127602,-0.417175 -0.276829,-0.557477 -0.0473,-0.04447 -0.18254,-0.120223 -0.233552,-0.15052 -0.435808,-0.213086 -0.913069,-0.320009 -1.378273,-0.449496 -0.186431,-0.03655 -0.287277,-0.06127 -0.473771,-0.07948 -0.265103,-0.02589 -0.532354,-0.0038 -0.797997,-0.01541 -0.421743,-0.0076 -0.842816,-0.02947 -1.263732,-0.05692 -0.60567,-0.02274 -1.209009,-0.07686 -1.804487,-0.194951 -0.626037,-0.116801 -1.264714,-0.195579 -1.856679,-0.444364 -0.594866,-0.236051 -1.165485,-0.524195 -1.682782,-0.904577 -0.329669,-0.229597 -0.757217,-0.497883 -1.001609,-0.821024 -0.03868,-0.05114 -0.06793,-0.108757 -0.101894,-0.163136 -0.09223,-0.189859 -0.243141,-0.477167 -0.09381,-0.682584 0.01762,-0.02424 0.0442,-0.04049 0.0663,-0.06074 0.107786,-0.05267 0.106184,-0.06005 0.237021,-0.08338 0.06371,-0.01136 0.257426,-0.02219 0.192722,-0.02356 -0.768131,-0.01627 -1.536541,-0.01413 -2.304811,-0.02119 0.09508,0.0037 0.190867,-0.0012 0.285237,0.01098 0.110663,0.01425 0.218506,0.04531 0.327758,0.06796 0.979414,0.215656 1.954848,0.449226 2.935679,0.65871 0.994396,0.218471 1.986877,0.445234 2.97868,0.675166 0.549468,0.124858 1.102236,0.247729 1.626128,0.460234 0.199919,0.08883 0.336862,0.144642 0.529759,0.251299 0.358535,0.198242 0.687689,0.446585 0.981805,0.731299 0.16103,0.177253 0.235764,0.248806 0.374375,0.443368 0.204778,0.287436 0.33931,0.608901 0.436803,0.946734 0.141085,0.514364 0.282229,1.029318 0.362238,1.557611 0.0788,0.524675 0.192476,1.048254 0.191151,1.581086 -0.01927,0.34384 -0.08541,0.681167 -0.152286,1.018569 -0.08202,0.474357 -0.170882,0.951916 -0.168369,1.43508 z" />
    <rect
       style="fill:#d6d6d6;fill-opacity:1"
       id="rect12"
       width="16.612766"
       height="6.0459576"
       x="30.774467"
       y="30.393194" />
    <path
       style="opacity:1;fill:#550000;fill-opacity:1"
       id="path27"
       d="m 37.930126,31.827771 c -0.577351,0.16344 -1.178721,0.208644 -1.77562,0.228435 -0.857072,0.0022 -2.88944,0.0467 0.95473,0.0031 0.152712,-0.0017 -0.305395,-0.0059 -0.458036,-0.01083 -0.41488,-0.01347 -0.386306,-0.01625 -0.808081,-0.04963 -0.858764,-0.101906 -1.701792,-0.300955 -2.546162,-0.482539 -1.127837,-0.234052 -2.253425,-0.47579 -3.371334,-0.753694 -1.136145,-0.291513 -2.286046,-0.528735 -3.413338,-0.854173 -0.362154,-0.118437 -0.746084,-0.222038 -1.040622,-0.474974 -0.01465,-0.02293 -0.03409,-0.04342 -0.04396,-0.06878 -0.05817,-0.149508 -0.04558,-0.413426 0.0028,-0.562272 0.01776,-0.05465 0.04805,-0.104397 0.07208,-0.156595 0.04023,-0.05459 0.0768,-0.112088 0.120704,-0.163768 0.118432,-0.139392 0.25463,-0.262718 0.378349,-0.397439 0.197758,-0.215345 0.387417,-0.438688 0.582074,-0.656869 0.227016,-0.239084 0.45928,-0.478493 0.722941,-0.67817 0.09304,-0.07046 0.362718,-0.24698 0.457237,-0.309643 0.301175,-0.184372 0.618416,-0.355389 0.957425,-0.460132 0.207428,-0.06409 0.300642,-0.07279 0.515291,-0.109637 0.250036,-0.03319 0.501582,-0.05384 0.753537,-0.06465 0.06813,-0.0029 0.272666,-0.0062 0.204477,-0.0062 -2.887843,9.41e-4 -3.11665,-0.0034 -2.147985,0.0099 1.439281,0.05742 2.878924,0.02901 4.319196,0.02293 0.121714,-0.0089 0.24346,-0.01731 0.36514,-0.02663 0.322806,-0.02471 0.644725,-0.05828 0.968769,-0.06181 0.121469,-0.0013 0.485891,0.0023 0.364417,0.003 -0.696581,0.0044 -1.39318,0.0053 -2.089771,0.008 0.617099,0.02078 1.230149,0.09143 1.824143,0.2621 0.254339,0.08498 0.489939,0.21201 0.746217,0.291451 0.234887,0.06429 0.476344,0.09977 0.718075,0.125981 0.04127,0.0031 0.08254,0.0063 0.123809,0.0094 0,0 2.58273,-0.395884 2.58273,-0.395884 v 0 c -0.04041,-9.48e-4 -0.08083,-0.0019 -0.121242,-0.0028 -0.240364,-0.01046 -0.478913,-0.03629 -0.715263,-0.0814 -0.07726,-0.01492 -0.178424,-0.0327 -0.254011,-0.05443 -0.178006,-0.05117 -0.3329,-0.160609 -0.508286,-0.220327 -0.612071,-0.204397 -1.249702,-0.28729 -1.892628,-0.323105 -1.103725,-0.0062 -2.208117,-0.04891 -3.31121,-0.01105 -0.318788,0.01094 -0.636188,0.04839 -0.954461,0.06764 -0.122206,0.0074 -0.244572,0.01185 -0.366857,0.01778 4.326741,0.01444 1.758966,0.02103 0.75802,-0.02777 -1.302823,-0.06192 -2.626055,-0.115551 -3.915781,0.10802 -0.08976,0.02217 -0.18055,0.0405 -0.269269,0.06651 -0.435311,0.127634 -0.835657,0.35339 -1.211528,0.602714 -0.184871,0.127427 -0.291828,0.195898 -0.466332,0.337 -0.264168,0.213604 -0.499651,0.46041 -0.722551,0.715932 -0.188659,0.218019 -0.376996,0.436195 -0.574243,0.646571 -0.124413,0.132695 -0.292086,0.293421 -0.400922,0.441392 -0.04969,0.06755 -0.08738,0.143153 -0.131071,0.214729 -0.02593,0.06987 -0.05781,0.137804 -0.07778,0.209601 -0.05843,0.21009 -0.06467,0.499165 -0.01721,0.712912 0.01191,0.05364 0.03332,0.104714 0.04997,0.15707 0.02951,0.03954 0.0545,0.08288 0.08853,0.118604 0.267051,0.280408 0.693553,0.369487 1.042538,0.491588 1.142753,0.326647 2.315733,0.537946 3.460994,0.856519 1.106428,0.279817 2.221159,0.521844 3.335748,0.766708 0.844517,0.184094 1.686695,0.381808 2.541543,0.513529 0.137665,0.01522 0.274925,0.03472 0.412995,0.04567 0.195857,0.01553 0.701937,0.02987 0.883619,0.03085 1.341327,0.0073 2.684775,0.02423 4.026427,-0.0068 0.142511,-0.008 0.285252,-0.01255 0.427534,-0.02391 0.486098,-0.03881 0.966333,-0.133449 1.439695,-0.247608 z" />
    <ellipse
       style="fill:#d6d6d6;fill-opacity:1"
       id="path12"
       cx="31.182978"
       cy="30.611063"
       rx="3.3497872"
       ry="3.6493616" />
    <path
       style="opacity:1;fill:#550000;fill-opacity:1"
       id="path26"
       d="m 39.682736,32.095088 c -0.986104,-0.01453 -1.970369,-0.114356 -2.948878,-0.232469 -0.183003,-0.0308 -0.368378,-0.04983 -0.549007,-0.09239 -0.691834,-0.16302 -1.405992,-0.474827 -1.900344,-1.001584 -0.103555,-0.110343 -0.183444,-0.240719 -0.275166,-0.361078 -0.06587,-0.130137 -0.141375,-0.255829 -0.197607,-0.390411 -0.146279,-0.350096 -0.264927,-0.807835 -0.217501,-1.190694 0.04253,-0.343297 0.13334,-0.433708 0.301417,-0.733346 0.100048,-0.115422 0.191846,-0.238547 0.300144,-0.346265 0.458669,-0.456213 1.046021,-0.794314 1.64551,-1.02739 0.152486,-0.05929 0.309695,-0.10562 0.464543,-0.158429 0.250231,-0.06633 0.597532,-0.169791 0.860609,-0.197821 0.117395,-0.01251 0.472215,-0.0047 0.354163,-0.0034 -4.386855,0.04781 -2.710785,-0.108437 -1.96849,0.06882 0.07056,0.01685 0.138437,0.04344 0.207655,0.06517 0.257087,0.09056 0.479208,0.250842 0.721716,0.371389 0.127988,0.06362 0.2237,0.102233 0.354031,0.157715 0.19632,0.08821 0.401207,0.146507 0.611031,0.191026 0,0 2.578145,-0.365532 2.578145,-0.365532 v 0 c -0.208652,-0.02402 -0.417757,-0.04935 -0.611498,-0.136989 -0.183708,-0.06368 -0.374863,-0.129249 -0.548695,-0.217154 -0.130947,-0.06622 -0.223007,-0.143025 -0.349733,-0.216593 -0.06175,-0.03584 -0.126466,-0.06631 -0.189698,-0.09946 -1.170514,-0.474841 -1.375439,-0.211529 -3.327927,-0.200978 -0.398857,0.0022 -0.808836,0.172647 -1.185868,0.277306 -0.15559,0.05994 -0.313932,0.113176 -0.466771,0.17982 -0.612412,0.267037 -1.206118,0.643274 -1.659853,1.139073 -0.113521,0.124045 -0.208021,0.264242 -0.312032,0.396363 -0.18402,0.363815 -0.272164,0.452919 -0.314982,0.860336 -0.04431,0.421645 0.08021,0.912563 0.233613,1.301489 0.05874,0.14894 0.136565,0.289631 0.204847,0.434446 0.09562,0.136625 0.178026,0.283523 0.28686,0.409874 0.36802,0.42725 0.857913,0.7147 1.370278,0.933786 0.183365,0.07841 0.368833,0.154593 0.561033,0.207783 0.183849,0.05088 0.375257,0.06883 0.562886,0.103253 0.938431,0.118872 1.880273,0.211415 2.823418,0.283278 z" />
    <ellipse
       style="fill:#d6d6d6;fill-opacity:1"
       id="path12-1"
       cx="31.15234"
       cy="34.98468"
       rx="3.3497872"
       ry="3.6493616" />
    <path
       style="opacity:1;fill:#880009;fill-opacity:1"
       d="m 44.337021,20.262128 -2.233191,-0.980426 -0.108936,0.599149 -0.87149,0.435745 0.108936,1.797447 -1.470638,0.163404 -0.490213,1.41617 0.599149,0.980426 -0.27234,1.198297 -0.490213,0.272341 -0.490213,0.980425 -0.817021,-0.381276 -0.762553,-0.05447 c 0,0 -0.817021,0.490212 -0.762553,0.871489 0.05447,0.381277 -0.108936,1.307234 -0.108936,1.307234 l 0.817021,1.034894 c 0,0 0.217872,0.490212 0.490213,0.708085 0.27234,0.217872 1.143829,0.980425 1.143829,0.980425 l 0.217873,0.435745 0.27234,0.925957 -0.544681,0.381277 -0.381276,-0.217872 -1.089362,0.925957 -0.490213,0.381277 -0.163404,1.252766 c 0,0 0.490213,0.653617 0.871489,0.762553 0.381277,0.108936 1.688511,1.089362 1.688511,1.089362 l -0.435745,1.089361 v 1.198298 l -0.27234,1.14383 0.163404,0.980426 -0.435745,0.653617 c 0,0 0.653617,0.653617 0.87149,0.599148 0.217872,-0.05447 1.68851,-0.163404 1.68851,-0.163404 h 0.326809 z"
       id="path24" />
    <g
       id="g22"
       clip-path="url(#clipPath22)">
      <path
         stroke="none"
         fill="#2f8ac6"
         d="m 28.1,36.85 0.55,0.25 q 5.1,3.75 10.8,4.85 l 0.55,0.3 q 0.25,0.2 0.3,0.5 l -0.05,0.6 -1.8,4.1 -0.45,0.5 -0.65,0.1 Q 29.95,46.8 25.4,42.55 l -0.25,-0.6 Q 25.05,41.6 25.2,41.4 L 27.15,37.45 27.6,37 28.1,36.85"
         id="path1" />
      <path
         stroke="none"
         fill="#2f8ac6"
         d="m 12.6,24.15 q 1.9,0 3.7,1.2 l 8.05,5.15 q 3.8,2.35 0,4.75 L 16.3,40.4 q -1.8,1.15 -3.7,1.15 -1.25,0 -2.5,-1.15 L 4.9,35.25 q -2.45,-2.4 0,-4.75 l 5.2,-5.15 q 1.25,-1.2 2.5,-1.2"
         id="path2" />
      <path
         stroke="none"
         fill="#2f8ac6"
         d="M 47.05,27.7 31.7,31.1 30.95,31 30.4,30.45 27.2,23.6 27.15,22.85 q 0.05,-0.4 0.4,-0.65 8.35,-6.15 19.2,-6.2 0.5,0 0.85,0.3 l 0.3,0.8 v 9.55 l -0.2,0.65 -0.65,0.4"
         id="path3" />
      <path
         stroke="none"
         fill="#37a5ee"
         d="m 40.95,23.2 3.4,0.2 q 3.2,0.15 8,2.85 4.75,2.75 7.35,5.2 2.55,2.5 -4.55,7 -7.15,4.5 -14,4.6 h -0.2 q -3.65,-10.2 0,-19.85 m 10,7.15 q -0.6,0 -1.05,0.45 -0.45,0.45 -0.45,1.05 0,0.6 0.45,1.05 0.45,0.45 1.05,0.45 0.65,0 1.1,-0.45 l 0.45,-1.05 q 0,-0.6 -0.45,-1.05 -0.45,-0.45 -1.1,-0.45"
         id="path4" />
      <path
         stroke="none"
         fill="#2c84bf"
         d="m 50.95,30.35 q 0.65,0 1.1,0.45 0.45,0.45 0.45,1.05 l -0.45,1.05 q -0.45,0.45 -1.1,0.45 -0.6,0 -1.05,-0.45 -0.45,-0.45 -0.45,-1.05 0,-0.6 0.45,-1.05 0.45,-0.45 1.05,-0.45"
         id="path5" />
      <path
         stroke="none"
         fill="#3498db"
         d="M 40.95,43.05 H 40.6 q -9.1,-0.1 -15.65,-2.9 -6.85,-2.9 -6.85,-7 0,-4.15 6.85,-7.05 6.55,-2.75 15.65,-2.9 h 0.35 q -3.65,9.65 0,19.85"
         id="path6" />
      <path
         stroke="none"
         fill="#2f8ac6"
         d="m 41.9,40.55 -11.45,-0.5 -0.55,-0.3 q -0.2,-0.2 -0.25,-0.55 l -0.3,-2.1 0.15,-0.55 0.4,-0.45 0.55,-0.15 q 5.85,0.2 11.4,-1 l 0.55,0.05 0.55,0.4 0.1,0.55 -0.2,3.65 -0.25,0.6 -0.7,0.35"
         id="path7" />
    </g>
    <path
       style="opacity:1;fill:#aa0000;fill-opacity:1;stroke-width:0.0544681"
       d="m 30.474894,30.871933 c -0.179745,-0.04595 -1.07032,-0.265134 -1.979056,-0.487077 -1.890007,-0.4616 -2.564994,-0.665824 -2.854987,-0.863805 -0.192318,-0.131297 -0.204255,-0.156133 -0.204255,-0.424977 0,-0.340935 0.02371,-0.377435 0.826196,-1.271664 0.778946,-0.868003 1.216402,-1.228221 1.924442,-1.584662 0.487394,-0.245362 0.862833,-0.339713 1.498529,-0.376589 0.657032,-0.03811 0.61145,-0.06455 0.840275,0.487351 0.100134,0.241513 0.223374,0.429923 0.356277,0.544681 0.193375,0.166974 0.207173,0.201533 0.285701,0.715583 0.07847,0.513661 0.0774,0.551685 -0.02171,0.775747 -0.08813,0.19923 -0.102734,0.351323 -0.09458,0.984971 0.01209,0.939633 -0.05438,1.561393 -0.168321,1.574551 -0.04494,0.0052 -0.228766,-0.02816 -0.408511,-0.07411 z"
       id="path29" />
    <path
       style="opacity:1;fill:#ffd5d5;fill-opacity:0.608541"
       d="m 20.262128,21.405957 c 0.0183,0.03007 0.02617,0.06635 0.02198,0.101306 -0.0042,0.03495 -0.02042,0.06834 -0.04531,0.09324 -0.02489,0.02489 -0.05828,0.04112 -0.09323,0.04531 -0.03495,0.0042 -0.07124,-0.0037 -0.101306,-0.02198 -0.04085,-0.02486 -0.06931,-0.06909 -0.075,-0.116567 -0.0057,-0.04748 0.0115,-0.09718 0.04531,-0.130997 0.03381,-0.03381 0.08352,-0.05101 0.130997,-0.04531 0.04748,0.0057 0.09171,0.03415 0.116567,0.075 0.0215,0.03533 0.02841,0.07839 0.02384,0.119498 -0.0046,0.04111 -0.02007,0.08042 -0.04054,0.116359 -0.04095,0.07187 -0.101271,0.130763 -0.146707,0.199888 -0.0539,0.082 -0.08631,0.181847 -0.07111,0.278786 0.0076,0.04847 0.02717,0.09534 0.05833,0.133241 0.03116,0.0379 0.07408,0.06648 0.121721,0.07819 0.03558,0.0087 0.07319,0.0081 0.108936,0 0.0091,-0.0021 0.01816,-0.0046 0.02746,-0.0053 0.0093,-7.44e-4 0.01906,4.37e-4 0.02701,0.0053 0.0046,0.0028 0.0085,0.0069 0.01116,0.01163 0.0027,0.0047 0.0041,0.01017 0.0041,0.0156 0,0.0054 -0.0014,0.01086 -0.0041,0.0156 -0.0027,0.0047 -0.0065,0.0088 -0.01116,0.01163"
       id="path34"
       inkscape:path-effect="#path-effect34"
       inkscape:original-d="m 20.262128,21.405957 c -0.07262,0.07262 -0.290497,0.145249 -0.217873,0.217873 0.07262,0.07262 0.192963,-0.317512 0.217873,-0.217873 0.03762,0.150494 -0.11435,0.28858 -0.163405,0.435745 -0.04253,0.127603 0.02648,0.407758 0.108937,0.490213 0.02568,0.02568 0.07262,0 0.108936,0 0.01816,0 0.05447,0.01816 0.05447,0 0,-0.01271 -0.147064,0.05447 0,0.05447" />
    <path
       style="opacity:1;fill:#ffd5d5;fill-opacity:1"
       d="m 25.926809,29.031489 1.307234,-0.925957"
       id="path35"
       inkscape:path-effect="#path-effect35"
       inkscape:original-d="m 25.926809,29.031489 1.307234,-0.925957" />
    <path
       style="opacity:1;fill:#ffd5d5;fill-opacity:1"
       d="M 27.942128,29.848511 26.525957,29.358298"
       id="path36"
       inkscape:path-effect="#path-effect36"
       inkscape:original-d="M 27.942128,29.848511 26.525957,29.358298" />
    <path
       style="opacity:1;fill:#ffd5d5;fill-opacity:0.590747"
       d="m 23.748085,28.323404 c -0.175953,0.182825 -0.273268,0.438928 -0.263126,0.692466 0.01014,0.253538 0.127602,0.501049 0.317596,0.669236 0.122986,0.10887 0.274858,0.184806 0.435745,0.217873"
       id="path37"
       inkscape:path-effect="#path-effect37"
       inkscape:original-d="m 23.748085,28.323404 c 0.08114,0.435306 -0.235657,0.974868 0.05447,1.361702 0.124731,0.166308 0.287704,0.06983 0.435745,0.217873" />
    <path
       style="opacity:1;fill:#ffd5d5;fill-opacity:0.501779"
       d="m 26.580426,28.377872 c 0.04909,0.07446 0.07119,0.166309 0.06134,0.254949 -0.0098,0.08864 -0.05157,0.173398 -0.11581,0.235264 -0.01852,0.01784 -0.03896,0.03396 -0.05447,0.05447 -0.02145,0.02835 -0.03233,0.06415 -0.03226,0.0997 6.9e-5,0.03555 0.0108,0.07075 0.02885,0.101379 0.03611,0.06125 0.09963,0.102451 0.166812,0.125732 0.01944,0.0067 0.03935,0.01217 0.05832,0.02014 0.01896,0.008 0.03721,0.01873 0.05062,0.03433 0.01889,0.02198 0.02647,0.05133 0.03183,0.07981 0.0054,0.02849 0.0093,0.05788 0.02264,0.08359 0.01465,0.02817 0.04055,0.05028 0.07067,0.06032 0.03012,0.01004 0.06411,0.0079 0.09273,-0.0058"
       id="path38"
       inkscape:path-effect="#path-effect38"
       inkscape:original-d="m 26.580426,28.377872 c -0.150568,0.02814 -0.005,0.39122 -0.05447,0.490213 -0.01148,0.02297 -0.05447,0.02879 -0.05447,0.05447 0,0.0691 0.116723,0.280127 0.163405,0.326809 0.02871,0.02871 0.08023,0.02576 0.108936,0.05447 0.0406,0.0406 0.01387,0.122806 0.05447,0.163404 0.03411,0.03411 0.106733,-0.0022 0.163404,0.05447" />
    <path
       style="opacity:1;fill:#ffd5d5;fill-opacity:0.6121"
       d="m 37.474043,27.01617 c 0.0092,0.03341 0.002,0.07097 -0.01901,0.09855 -0.021,0.02759 -0.05526,0.04457 -0.08993,0.04457 -0.03467,0 -0.06894,-0.01698 -0.08993,-0.04457 -0.021,-0.02758 -0.02824,-0.06514 -0.01901,-0.09855 0.0065,-0.02362 0.02098,-0.04499 0.04049,-0.05983 0.0195,-0.01485 0.04394,-0.02309 0.06845,-0.02309 0.02451,0 0.04895,0.0082 0.06845,0.02309 0.0195,0.01485 0.03396,0.03621 0.04049,0.05983 0.0062,0.02246 0.0053,0.04671 -0.0018,0.0689 -0.0071,0.02219 -0.02024,0.0423 -0.03711,0.05837 -0.03375,0.03213 -0.08144,0.04722 -0.128035,0.04704 -0.0466,-1.72e-4 -0.09224,-0.01453 -0.134133,-0.03494 -0.04189,-0.02041 -0.08053,-0.0468 -0.119297,-0.07265 -0.03877,-0.02585 -0.07807,-0.0514 -0.12084,-0.06989 -0.04277,-0.01849 -0.08953,-0.02976 -0.135951,-0.02571 -0.04642,0.004 -0.09245,0.02461 -0.121536,0.06102 -0.01454,0.0182 -0.02462,0.04009 -0.02812,0.06312 -0.0035,0.02303 -3.19e-4,0.04717 0.0098,0.06814 0.0045,0.0094 0.01049,0.01832 0.01224,0.02857 8.76e-4,0.0051 6.24e-4,0.01054 -0.0014,0.01534 -0.002,0.0048 -0.0059,0.0089 -0.01085,0.01056 -0.0048,0.0016 -0.01011,7.99e-4 -0.01489,-8.8e-4 -0.0048,-0.0017 -0.0092,-0.0042 -0.01391,-0.0061 -0.0047,-0.0019 -0.0098,-0.0032 -0.0148,-0.0024 -0.0025,4.4e-4 -0.0049,0.0014 -0.0069,0.003 -0.002,0.0016 -0.0034,0.0038 -0.004,0.0063 -6.2e-4,0.0027 -7e-5,0.0057 0.0013,0.0081 0.0014,0.0024 0.0036,0.0043 0.0062,0.0055 0.0025,0.0012 0.0054,0.0017 0.0082,0.0017 0.0028,-4.2e-5 0.0056,-6.27e-4 0.0082,-0.0015 0.0053,-0.0018 0.0101,-0.0049 0.01497,-0.0077 0.0049,-0.0028 0.01,-0.0054 0.01557,-0.0061 0.0057,-7.7e-4 0.01159,4.85e-4 0.01662,0.0033 0.005,0.0028 0.0092,0.007 0.01209,0.01198 0.0058,0.0099 0.0065,0.02221 0.004,0.0334 -0.0026,0.01119 -0.0082,0.02146 -0.01431,0.03116 -0.0062,0.0097 -0.01296,0.019 -0.01836,0.02914 -0.01206,0.02265 -0.01662,0.04921 -0.01284,0.07459 0.0038,0.02538 0.01592,0.04944 0.03406,0.06759 0.01814,0.01815 0.04221,0.03027 0.06759,0.03406 0.02538,0.0038 0.05194,-7.82e-4 0.07459,-0.01284"
       id="path39"
       inkscape:path-effect="#path-effect39"
       inkscape:original-d="m 37.474043,27.01617 c -0.07263,0 -0.217873,-0.07262 -0.217873,0 0,0.07262 0.285302,-0.02697 0.217873,0 -0.0016,6.46e-4 -0.770627,0.11701 -0.817022,0.163404 -0.01284,0.01284 0.01284,0.04163 0,0.05447 -0.01284,0.01284 -0.05447,-0.01816 -0.05447,0 0,0.01816 0.04635,-0.01624 0.05447,0 0.01624,0.03248 -0.02014,0.07872 0,0.108936 0.06266,0.09399 0.163405,0.05958 0.163405,0.163404" />
    <path
       style="opacity:1;fill:#ffd5d5;fill-opacity:0.6121"
       d="m 37.474043,34.369362 c -0.06658,0.06196 -0.139751,0.116833 -0.217873,0.163404 -0.08593,0.05123 -0.179246,0.09348 -0.250334,0.163875 -0.03554,0.0352 -0.06498,0.07744 -0.08033,0.125051 -0.01535,0.04761 -0.01583,0.100834 0.0039,0.146819 0.01363,0.03184 0.03668,0.05956 0.0655,0.07877 0.02881,0.01921 0.06328,0.02983 0.09791,0.03016"
       id="path40"
       inkscape:path-effect="#path-effect40"
       inkscape:original-d="m 37.474043,34.369362 c -0.07263,0.05447 -0.139054,0.118364 -0.217873,0.163404 -0.247286,0.141307 -0.459869,0.169623 -0.326808,0.435745 0.02621,0.05242 0.06972,0.108936 0.163404,0.108936" />
  </g>
</svg>
